PathFileType	4	(X/Y/Z)	..\data\2014030\dynamic\2014030_C5_02.trc
DataRate	CameraRate	NumFrames	NumMarkers	Units	OrigDataRate	OrigDataStartFrame	OrigNumFrames
100.000000	100.000000	4	52	mm	100.000000	116	155
Frame#	Time	L_IAS			L_IPS			R_IPS			R_IAS			L_FTC			L_FLE			L_FME			L_FAX			L_TTC			L_FAL			L_TAM			L_FCC			L_FM1			L_FM2			L_FM5			R_FTC			R_FLE			R_FME			R_FAX			R_TTC			R_FAL			R_TAM			R_FCC			R_FM1			R_FM2			R_FM5			CV7			TV10			SXS			SJN			L_SIA			L_SRS			L_SAA			L_SAE			L_HLE			L_HME			L_UOA			L_RSP			L_UHE			L_HM2			L_HM5			R_SIA			R_SRS			R_SAA			R_SAE			R_HLE			R_HME			R_UOA			R_RSP			R_UHE			R_HM2			R_HM5			
		X1	Y1	Z1	X2	Y2	Z2	X3	Y3	Z3	X4	Y4	Z4	X5	Y5	Z5	X6	Y6	Z6	X7	Y7	Z7	X8	Y8	Z8	X9	Y9	Z9	X10	Y10	Z10	X11	Y11	Z11	X12	Y12	Z12	X13	Y13	Z13	X14	Y14	Z14	X15	Y15	Z15	X16	Y16	Z16	X17	Y17	Z17	X18	Y18	Z18	X19	Y19	Z19	X20	Y20	Z20	X21	Y21	Z21	X22	Y22	Z22	X23	Y23	Z23	X24	Y24	Z24	X25	Y25	Z25	X26	Y26	Z26	X27	Y27	Z27	X28	Y28	Z28	X29	Y29	Z29	X30	Y30	Z30	X31	Y31	Z31	X32	Y32	Z32	X33	Y33	Z33	X34	Y34	Z34	X35	Y35	Z35	X36	Y36	Z36	X37	Y37	Z37	X38	Y38	Z38	X39	Y39	Z39	X40	Y40	Z40	X41	Y41	Z41	X42	Y42	Z42	X43	Y43	Z43	X44	Y44	Z44	X45	Y45	Z45	X46	Y46	Z46	X47	Y47	Z47	X48	Y48	Z48	X49	Y49	Z49	X50	Y50	Z50	X51	Y51	Z51	X52	Y52	Z52	

117	1.16	1310.064331054688	914.387145996094	-390.7879638671876	1117.975708007813	967.8203125000002	-299.9499816894532	1133.001708984375	973.9160156250002	-185.4629364013672	1341.125610351563	931.8361816406252	-138.2377471923828	1233.46630859375	845.1838989257815	-430.5978088378907	1228.30810546875	449.349822998047	-403.6275634765626	1255.749389648438	441.9930114746095	-286.5830383300782	1187.521728515625	406.8997192382814	-404.9104309082032	1241.496215820313	371.8838500976563	-358.2325134277344	928.895690917969	196.7064056396485	-374.8068542480469	955.4680786132815	196.4685821533204	-289.2174072265626	873.7954711914065	215.0802459716797	-329.3625793457032	958.9840087890627	71.00398254394533	-263.2294921875001	964.5418090820315	55.095027923584	-317.0171508789063	925.5410156250002	57.59386062622072	-361.6240234375001	1265.557983398438	852.9297485351565	-75.78903961181642	1362.646362304688	467.7262573242189	-164.5846710205078	1351.481811523438	478.1421508789064	-286.1584167480469	1357.57666015625	407.5301818847657	-167.8925933837891	1404.454345703125	411.5283203125001	-231.8235015869141	1329.646850585938	71.99412536621095	-207.6202392578126	1336.057006835938	88.1986770629883	-298.4945983886719	1275.667358398438	18.96831703186036	-250.3130798339844	1458.12841796875	21.23724555969239	-296.5323181152344	1468.614135742188	37.52477645874024	-238.5827636718751	1428.288818359375	14.65483760833741	-182.5836791992188	1203.128051757813	1422.7568359375	-253.7314147949219	1130.362915039063	1195.926635742188	-275.4482727050782	1369.90673828125	1113.436645507813	-274.7523193359376	1336.924926757813	1331.638427734375	-271.5622558593751	1123.579467773438	1231.40869140625	-372.1395874023438	1161.958740234375	1362.521118164063	-374.4946899414063	1214.273315429688	1364.326538085938	-440.2037658691407	1270.645263671875	1373.682861328125	-453.6153869628907	1260.01416015625	1067.028442382813	-552.6254272460939	1216.078247070313	1049.85986328125	-490.9257812500001	1231.153686523438	1028.40185546875	-531.6956176757814	1424.586791992188	885.862976074219	-498.9408569335939	1379.799072265625	864.8666992187502	-552.2794799804689	1484.603759765625	822.201110839844	-505.7037658691407	1398.457885742188	798.112487792969	-558.7511596679689	1126.24169921875	1217.944091796875	-185.3592681884766	1168.4912109375	1339.597534179688	-157.5840759277344	1209.776977539063	1340.058837890625	-103.9308013916016	1262.5166015625	1343.108276367188	-81.2726516723633	1176.314819335938	1038.488525390625	-9.125753402709963	1135.15283203125	1031.37060546875	-81.11698150634767	1135.353149414063	1017.259399414063	-34.12189865112305	1191.075805664063	792.746276855469	-46.59708404541016	1156.978637695313	805.6363525390627	24.90111732482911	1207.520751953125	708.8010864257814	-40.24447631835938	1150.603515625	734.8386230468751	40.39538955688477	
118	1.17	1322.970703125	915.642761230469	-390.9202880859376	1130.881591796875	969.5498046875002	-299.3874816894532	1145.810546875	975.8903808593752	-185.071029663086	1353.868286132813	933.220397949219	-138.1263122558594	1246.1474609375	846.840270996094	-430.468231201172	1255.425048828125	451.0652465820314	-405.3783264160157	1281.504638671875	444.203094482422	-288.0314331054688	1214.993408203125	408.6306457519532	-406.5422973632814	1268.47119140625	374.2210693359376	-359.5171508789063	955.1413574218752	200.9362487792969	-377.2254638671876	981.612731933594	199.9580535888672	-291.5215454101563	899.6716918945315	217.9139251708985	-331.4202575683594	987.3653564453127	72.89730072021486	-269.3762207031251	992.694519042969	58.80797958374025	-323.6583251953126	953.7976074218752	62.64352035522462	-367.8226013183594	1278.018432617188	854.6260375976565	-75.51546478271486	1367.400512695313	467.2695922851564	-164.1860504150391	1356.796875	478.0579528808595	-285.8260803222657	1361.53173828125	407.1220703125001	-167.5753936767578	1408.659057617188	410.6899719238282	-231.3108215332032	1329.93603515625	71.94524383544923	-207.4904479980469	1336.278076171875	88.29751586914064	-298.4499511718751	1275.9619140625	19.11205101013184	-250.2466430664063	1458.1240234375	20.99765205383301	-296.6775512695313	1469.090942382813	37.47009658813477	-238.5980987548829	1428.439453125	14.95799064636231	-182.4128723144532	1216.597045898438	1424.47021484375	-254.2645568847657	1143.693115234375	1197.717651367188	-275.4657592773438	1383.026245117188	1114.820434570313	-275.3891906738282	1350.466064453125	1332.896850585938	-271.6913452148438	1136.7724609375	1233.151489257813	-372.0275878906251	1175.428588867188	1364.232421875	-374.5735168457032	1227.5068359375	1365.969604492188	-440.3671264648439	1283.840698242188	1375.112426757813	-454.1129150390626	1268.94482421875	1068.056762695313	-551.8788452148439	1224.73046875	1052.107177734375	-490.2877807617189	1239.289794921875	1030.460083007813	-530.9761962890626	1427.959594726563	881.8218383789065	-497.8862915039064	1382.777709960938	862.4221191406252	-551.5897827148439	1485.616455078125	815.7766723632815	-504.137908935547	1399.049072265625	795.0427246093752	-558.0234985351564	1139.554565429688	1219.85107421875	-185.2676849365235	1182.17041015625	1341.271850585938	-157.651611328125	1223.579467773438	1341.647338867188	-104.1020431518555	1276.460693359375	1344.5625	-81.6159133911133	1194.36669921875	1038.813110351563	-8.191361427307131	1152.434204101563	1031.029418945313	-79.74195098876955	1153.5341796875	1016.765686035156	-32.87313842773438	1215.344970703125	793.4829711914065	-46.51029968261719	1180.408081054688	805.274108886719	24.78991508483887	1233.657104492188	710.0140380859376	-40.30241012573243	1176.052978515625	734.4849853515626	40.20751571655274	
119	1.18	1335.790283203125	917.0183105468752	-391.1664428710939	1143.737670898438	971.3335571289065	-298.8913879394532	1158.546020507813	977.8013305664065	-184.7431335449219	1366.488159179688	934.4824218750002	-138.0583953857422	1258.648559570313	848.6780395507815	-430.5077209472657	1282.40185546875	453.3272705078126	-406.7808532714845	1306.9970703125	447.0594787597657	-289.1429443359376	1242.466186523438	410.7216796875001	-407.7937316894532	1295.560424804688	377.1019287109376	-360.3618774414063	982.477722167969	203.9633026123047	-379.3409729003907	1008.781677246094	202.4212951660157	-293.5086059570313	926.433532714844	218.9513092041016	-333.2035827636719	1017.995971679688	73.89736938476564	-275.4363708496094	1023.384704589844	62.04840087890626	-330.2019348144532	984.5917968750002	66.93674468994142	-374.0483398437501	1290.090454101563	856.1406250000002	-75.34738922119142	1371.78759765625	466.852752685547	-163.8490295410157	1361.72314453125	478.0310974121095	-285.5460510253907	1365.139526367188	406.7455444335939	-167.3059234619141	1412.502685546875	409.8940429687501	-230.8457641601563	1330.14599609375	71.8787078857422	-207.4028015136719	1336.430908203125	88.35056304931642	-298.4360961914063	1276.16650390625	19.23858642578125	-250.2114257812501	1458.089599609375	20.78236389160157	-296.8583984375001	1469.484130859375	37.39008331298829	-238.6663513183594	1428.522338867188	15.17686557769776	-182.3660278320313	1229.980834960938	1426.19091796875	-254.8425903320313	1156.92822265625	1199.505126953125	-275.4392089843751	1396.085693359375	1116.237548828125	-275.9712219238282	1363.925415039063	1334.165405273438	-271.7640686035157	1149.895141601563	1234.842651367188	-371.8466186523438	1188.821166992188	1365.896362304688	-374.6478271484376	1240.658813476563	1367.566162109375	-440.5321350097657	1296.951538085938	1376.50048828125	-454.6234130859376	1277.829223632813	1069.147827148438	-551.2114868164064	1233.18505859375	1054.4716796875	-489.8742065429689	1247.306518554688	1032.647827148438	-530.4202270507814	1430.693969726563	877.8418579101565	-496.5582885742189	1385.4384765625	860.2024536132815	-550.8899536132814	1485.847900390625	809.4716796875002	-502.0812377929689	1399.29931640625	792.2589111328127	-557.3209228515626	1152.770751953125	1221.787231445313	-185.1411437988282	1195.763061523438	1342.975952148438	-157.725830078125	1237.254516601563	1343.30908203125	-104.3169250488282	1290.299682617188	1346.079833984375	-81.96307373046876	1212.548950195313	1039.183471679688	-7.30048990249634	1169.908203125	1030.69873046875	-78.42278289794923	1171.88720703125	1016.276550292969	-31.68157196044923	1240.003784179688	794.4783935546877	-46.52050781250001	1204.2041015625	805.0712890625002	24.53182792663575	1260.340942382813	711.5268554687501	-40.41804122924805	1201.94384765625	734.3517456054689	39.87084579467774	
120	1.19	1348.574096679688	918.5195922851565	-391.4766235351564	1156.574584960938	973.1224365234377	-298.5206298828126	1171.215209960938	979.6246337890627	-184.5242919921875	1379.0009765625	935.6608886718752	-138.0098876953125	1271.094970703125	850.622497558594	-430.6936035156251	1309.0927734375	456.0893859863282	-407.8345031738282	1332.284912109375	450.4526367187501	-289.9538574218751	1269.808349609375	413.1290893554689	-408.7018432617189	1322.666870117188	380.4579162597657	-360.8429565429688	1010.817565917969	205.6544799804688	-381.2134094238282	1036.88525390625	203.7442626953126	-295.2412109375001	954.018005371094	218.1795043945313	-334.8098144531251	1050.568603515625	74.01173400878908	-281.2590942382813	1056.270385742188	64.66082000732423	-336.4602355957032	1017.573608398438	70.27011108398439	-380.1119079589844	1301.797607421875	857.4807739257815	-75.27764892578126	1375.914794921875	466.4966125488282	-163.5908966064453	1366.282348632813	478.0481872558595	-285.3417053222657	1368.493408203125	406.4189758300782	-167.0966796875	1416.062866210938	409.1451416015626	-230.4613800048829	1330.312133789063	71.80848693847658	-207.3573913574219	1336.539794921875	88.35287475585939	-298.4574890136719	1276.291259765625	19.36394119262696	-250.1932830810547	1458.037353515625	20.54608726501465	-297.0701293945313	1469.8154296875	37.25449752807618	-238.7836914062501	1428.555908203125	15.29836177825928	-182.4096984863282	1243.29833984375	1427.890991210938	-255.4331359863282	1170.085571289063	1201.26171875	-275.3703613281251	1409.097045898438	1117.675903320313	-276.4773254394532	1377.31396484375	1335.43115234375	-271.7838134765626	1162.95849609375	1236.469482421875	-371.6048889160157	1202.144775390625	1367.498657226563	-374.7063903808594	1253.743286132813	1369.108764648438	-440.6836242675782	1309.998657226563	1377.838256835938	-455.1182861328126	1286.712158203125	1070.29638671875	-550.6018676757814	1241.478759765625	1056.948852539063	-489.6607055664064	1255.241333007813	1034.950317382813	-530.0118408203126	1432.837036132813	873.972351074219	-494.9757385253907	1387.835815429688	858.223083496094	-550.1806640625001	1485.340087890625	803.3562622070315	-499.5873107910157	1399.27001953125	789.787536621094	-556.6583862304689	1165.916870117188	1223.71875	-184.9770812988282	1209.279052734375	1344.687866210938	-157.7930755615235	1250.818481445313	1345.019897460938	-104.5551376342774	1304.045043945313	1347.64404296875	-82.29650878906251	1230.853149414063	1039.595947265625	-6.46858596801758	1187.59423828125	1030.379516601563	-77.18991851806642	1190.414184570313	1015.79248046875	-30.57170867919923	1264.966796875	795.761169433594	-46.64484024047852	1228.325561523438	805.0540771484377	24.12264442443848	1287.48876953125	713.3645019531251	-40.60637283325196	1228.210205078125	734.4684448242189	39.38134002685548	
